<svg xmlns="http://www.w3.org/2000/svg" width="1024" height="607.2" viewBox="0 0 1024 607.2"><title>Artboard 1 copy</title><path d="M138.2 377c0-205.4 169.7-371.9 379.1-371.9s379.1 166.5 379.1 371.9" fill="#62bacc" stroke="#231f20" stroke-miterlimit="10" stroke-width="10.21"/><path d="M234.9 377c0-154 125.6-278.9 280.6-278.9s280.6 124.8 280.6 278.9" fill="#b32025" stroke="#231f20" stroke-miterlimit="10" stroke-width="10.21"/><path d="M298.9 379.5c0-119.8 96.8-216.9 216.1-216.9s216.1 97.1 216.1 216.9" fill="#fff" stroke="#231f20" stroke-miterlimit="10" stroke-width="10.21"/><path d="M114.7 538.3q-7.6 8.5-22.3 13.6a96.2 96.2 0 0 1-32.2 5.2q-26.9 0-43-16.5t-17.1-45.8v-11.8q0-20.2 7.1-35.3a53 53 0 0 1 20.5-23.2q13.3-8.1 30.8-8.1 25.6 0 39.7 11.7t16.5 34.9h-31.8q-1.7-11.5-7.3-16.4t-16-4.9q-12.4 0-19.2 10.5t-6.9 30.1v8.3q0 20.5 7 30.8t22.1 10.3q12.9 0 19.2-5.7v-21.3h-23v-22.7h56zM167.1 555.2h-32.9v-136.9h32.9zM240.4 518l27.3-99.7h36.9l-46.1 136.9h-36.1l-45.7-136.9h36.6zM346.9 555.2h-32.9v-136.9h32.9zM482.3 555.2h-32.8l-48.6-85.2v85.2h-33v-136.9h33l48.4 85.2v-85.2h32.9zM613.1 538.3q-7.6 8.5-22.3 13.6a96.2 96.2 0 0 1-32.2 5.2q-26.9 0-43-16.5t-17.2-45.8v-11.8q0-20.2 7.1-35.3a53 53 0 0 1 20.5-23.3q13.3-8.1 30.8-8.1 25.6 0 39.7 11.7t16.5 34.9h-31.8q-1.7-11.5-7.3-16.4t-16-4.9q-12.4 0-19.2 10.5t-6.9 30.1v8.3q0 20.5 7 30.8t22.1 10.3q12.9 0 19.2-5.7v-21.2h-23v-22.7h56zM680.2 555.2v-136.9h44.1a64.9 64.9 0 0 1 32.6 8.2 57.9 57.9 0 0 1 22.6 23.2 70.1 70.1 0 0 1 8.2 33.6v6.3q0 18.8-7.9 33.7a58.1 58.1 0 0 1-22.4 23.3 63.4 63.4 0 0 1-32.2 8.5zm33-111.4v86.1h11.5q14.2 0 21.8-10.1t7.6-30v-5.9q0-19.8-7.6-29.9t-22.2-10.1zM873.5 529.6h-45.3l-7.9 25.6h-35.2l50.2-136.9h31l50.6 136.9h-35.4zm-37.3-25.5h29.4l-14.8-47.5zM958.3 477.7l25.2-59.4h35.6l-44.1 87.7v49.2h-33.5v-49.2l-44-87.7h35.5z" fill="#b32025"/><path d="M363.6 379.5c0-82.6 68.3-149.6 152.5-149.6s152.5 67 152.5 149.6" stroke="#231f20" stroke-miterlimit="10" stroke-width="10.21" fill="none"/><path d="M481.6 309.3c-16.4 0-32.2-12.8-30.4-30.8s21-31.1 36.8-20.1c14 9.8 8 36.2-10.5 31.9-3.4-.8-9.8-2.8-8.3-6.7 2.3-6.1 5.6-1.7 10.1-2 11-.6 7.3-15.1-3.4-16-19.9-1.8-17.4 24.8-3.1 31.8s31.9-4.4 33.7-20.3c2-18.2-13.6-34.3-31.2-35.2-3.9-.2-22 4.6-13.9-5.6 3.3-4.1 17.9-4.6 22.3-3.4 39.1 11 44.6 76.4-2.1 76.4zM550.1 309.8c-38.7 0-44.9-54.7-14.1-72.3 4.3-2.5 18.4-4.8 23.5-3.6 3.5.9 8.4.3 7 4.6s-8.7 3.4-12.1 4.2c-16.6 4-30.5 15.2-28.7 34.4 1.6 16 20 28 34.7 20.8s11.7-39.8-8.1-32c-7.2 2.9-10 11.9-1.4 15.3 4.4 1.8 6.9-5 10.4 1.1s-2.7 8.3-7.1 9.1c-18.7 3.2-22.1-20.2-13.1-29.8 14.8-15.9 38.3-.8 39.2 18.2 1 17.4-13.4 30-30.2 30zM408.5 381.6c-16.7 0-33.2-10.7-38.7-27.1-2.4-7.2-4-15.4-2.5-22.9s5.8-15.7 9.4-6c2.1 5.5-.2 15.7 1.5 22.5a32.4 32.4 0 0 0 14.7 19.9c14.4 8.4 36.4 4.3 41.2-13.3 4.3-15.9-10.6-35.5-27-24.4-6.2 4.2-9.6 12.5-4.2 18.9 9.3 11 14.9-5.2 22.6-1.5 9.3 4.5-7.1 14-11.5 14.7-7.9 1.2-17-2-21-9.1-8.7-15.5 3.8-35.4 20.6-35.6 18.9-.3 32.5 13.6 31.4 32.5s-18.1 31.4-36.5 31.4zM622.5 382c-32.7 0-53.7-48.2-18.6-62.5 15.1-6.2 35.5 2.7 37.4 20.5s-19.1 29.4-32.7 19.7c-9.7-6.9-4.9-12.9 4.6-9.3 7.6 2.8 17.9 3.6 18.2-8.9.6-21.2-30.1-16-34.6-.3-5.1 17.9 10.3 31.6 27.3 30.3s30.1-15.6 29.4-34.1c-.2-4.8-3.6-23.3 6.3-15.2 6.4 5.3 3.4 20.7 2 27-4.1 19.1-18.9 32.8-39.3 32.8zM648.3 239c-3-3.1-11.4 1.6-14.7 3.1-6.1 2.8-13.2 4.5-19.2 7.6s-9.8 4.9-11.9 9.9 4.7 11.6 1.6 15-7.5 3.9-10.2 5.7-4.1 2.9-6.3 4.6-6.2 3-8.6 5.3c-7.6 7.4-16.6 13.7-24.4 21.6-14.4 14.6-26.9 29.3-37.9 46.4-2 3.1-8.7 11.1-5.8 15s11.1-3.2 14-4.9c5.2-3.1 10.3-5.4 15.3-9.1s9.9-7.7 15-11.5 13-10 18.2-15.7c2.4-2.7 3.7-5.2 6.6-7.5a52.5 52.5 0 0 0 7.8-8.3c4-4.9 8.8-9.2 11.9-14.6 4.2-7.4 9.6-14 14-21.2 3.9 4.9 10.2 5.3 15.9 2.8s6-8.7 8.3-12.9a67.6 67.6 0 0 0 3.9-9.4c1-2.7 2.2-4.5 3-7.3s6.3-11.7 3.6-14.5z" fill="#231f20"/><path d="M13.6 607.2c-10 0-9.9-14.9 0-14.9s9.3 14.9 0 14.9zM984.1 599.3c0-10 15.7-9.8 15.3 0s-15.3 10-15.3 0zm-25 0c0-10 15.7-9.7 15.3 0s-15.4 10-15.4 0zm-25.1 0c0-10 15.7-9.7 15.3 0s-15.3 10-15.3 0zm-25.1 0c0-10 15.7-9.7 15.3 0s-15.3 10-15.3 0zm-25.1 0c0-10 15.6-9.7 15.3 0s-15.3 10-15.3 0zm-25.1 0c0-10 15.7-9.7 15.3 0s-15.3 10-15.3 0zm-25.1 0c0-10 15.7-9.7 15.3 0s-15.3 10-15.3 0zm-25.1 0c0-10 15.7-9.7 15.3 0s-15.2 10-15.2 0zm-25.1 0c0-10 15.7-9.7 15.3 0s-15.2 10-15.2 0zm-25.1 0c0-10 15.7-9.7 15.3 0s-15.2 10-15.2 0zm-25.1 0c0-10 15.7-9.7 15.3 0s-15.2 10-15.2 0zm-25.1 0c0-10 15.7-9.7 15.3 0s-15.1 10-15.1 0zm-25.1 0c0-10 15.7-9.8 15.3 0s-15.1 10-15.1 0zm-25.1 0c0-10 15.7-9.8 15.3 0s-15.1 10-15.1 0zm-25.1 0c0-10 15.7-9.7 15.3 0s-15.1 10-15.1 0zm-25.1 0c0-10 15.7-9.7 15.3 0s-15 10-15 0zm-25.1 0c0-10 15.7-9.7 15.3 0s-15 10-15 0zm-25.1 0c0-10 15.7-9.7 15.3 0s-15 10-15 0zm-25.1 0c0-10 15.7-9.7 15.3 0s-15 10-15 0zm-25.1 0c0-10 15.7-9.7 15.3 0s-14.9 10-14.9 0zm-25.1 0c0-10 15.7-9.7 15.3 0s-14.9 10-14.9 0zm-25.1 0c0-10 15.7-9.7 15.3 0s-14.9 10-14.9 0zm-25.1 0c0-10 15.7-9.7 15.3 0s-14.9 10-14.9 0zm-25.1 0c0-10 15.7-9.7 15.3 0s-14.8 10-14.8 0zm-25.1 0c0-10 15.7-9.7 15.3 0s-14.8 10-14.8 0zm-25.1 0c0-10 15.7-9.7 15.3 0s-14.8 10-14.8 0zm-25.1 0c0-10 15.7-9.7 15.3 0s-14.8 10-14.8 0zm-25.1 0c0-10 15.7-9.7 15.3 0s-14.7 10-14.7 0zm-25.1 0c0-10 15.7-9.7 15.3 0s-14.7 10-14.7 0zm-25.1 0c0-10 15.7-9.7 15.3 0s-14.7 10-14.7 0zm-25.1 0c0-10 15.7-9.7 15.3 0s-14.7 10-14.7 0zm-25.1 0c0-10 15.7-9.7 15.3 0s-14.6 10-14.6 0zm-25.1 0c0-10 15.7-9.7 15.3 0s-14.6 10-14.6 0zm-25.1 0c0-10 15.7-9.7 15.3 0s-14.6 10-14.6 0zm-25.1 0c0-10 15.7-9.7 15.3 0s-14.6 10-14.6 0zm-25.1 0c0-10 15.7-9.7 15.3 0s-14.5 10-14.5 0zm-25.1 0c0-10 15.7-9.8 15.3 0s-14.5 10-14.5 0zm-25.1 0c0-10 15.7-9.7 15.3 0s-14.5 10-14.5 0zm-25.1 0c0-10 15.7-9.7 15.3 0s-14.5 10-14.5 0zM1016.7 606.3c-9.6 0-10.1-14.2 0-14.1s9.6 14.1 0 14.1z" fill="#2a2a2a"/><path d="M518.8 371c.3 7.6-17.1-3.7-19.1-4.9-7.3-4.3-14.5-8.1-21.3-13.3a229 229 0 0 1-20.2-17.6c-2.7-2.6-5-5.6-7.6-8.3a61.3 61.3 0 0 1-4.7-5.1c-1.2-1.5-2.2-4.6-4-5.6s-6.1 2.4-9.7 2.9-8.9-2.1-11.4-6c-4.5-7.2-8.1-15.2-11.4-23.1a43.7 43.7 0 0 0-3.5-7c-1.5-2.4-3.6-6.8-.8-8.9s14.5 3.1 18.4 4.4 7.8 2.5 11.6 4.2 7.2 2.1 10.4 3.9 5.8 6.5 6.4 10.2-2 7.4-4.5 10.4c16.1 7 29.3 18.8 42.5 29.6 6.8 5.5 12.5 12.8 18.1 19.5 2.9 3.5 11 10.6 10.9 14.7-.1 1.7-.1-.5-.1 0z" fill="#231f20"/><path fill="#b32025" stroke="#231f20" stroke-linejoin="round" stroke-width="8.85" d="M327.2 169.7l-45.9-58.5-32.1 30.7 54.3 52 23.7-24.2zM288.4 207.6l-59.2-45.1-23.3 37.9 65.6 36.7 16.9-29.5zM261.8 254.8l-66.8-32.7-15.5 41.7 71.5 23.2 10.8-32.2zM242.9 308l-70.4-23.8-10 43.3 73.8 13.8 6.6-33.3zM234.9 380.7l-.9-19.2-74.1-6.4.4 25.6"/><path fill="#b32025" stroke="#231f20" stroke-linejoin="round" stroke-width="8.85" d="M703.4 169.7l45.9-58.5 32.1 30.7-54.3 52-23.7-24.2zM742.3 207.6l59.1-45.1 23.3 37.9-65.6 36.7-16.8-29.5zM768.8 254.8l66.8-32.7 15.5 41.7-71.5 23.2-10.8-32.2zM787.7 308l70.4-23.8 10 43.3-73.8 13.8-6.6-33.3zM795.7 380.7l.9-19.2 74.1-6.4-.4 25.6"/><circle cx="269.6" cy="366.5" r="11.6" transform="translate(-98.8 633.6) rotate(-89.6)" fill="#231f20"/><circle cx="272.7" cy="336.6" r="11.6" transform="translate(-96.2 563.7) rotate(-82.6)" fill="#231f20"/><circle cx="279.4" cy="307.2" r="11.6" transform="translate(-87.6 501.5) rotate(-75.6)" fill="#231f20"/><circle cx="289.6" cy="278.9" r="11.6" transform="translate(-75.7 446.8) rotate(-68.6)" fill="#231f20"/><circle cx="303.2" cy="252" r="11.6" transform="translate(-62.6 398.9) rotate(-61.6)" fill="#231f20"/><circle cx="320" cy="227" r="11.6" transform="translate(-50.4 356.4) rotate(-54.6)" fill="#231f20"/><circle cx="339.7" cy="204.2" r="11.6" transform="translate(-40.1 317.4) rotate(-47.6)" fill="#231f20"/><circle cx="362" cy="184" r="11.6" transform="translate(-32.6 279.9) rotate(-40.6)" fill="#231f20"/><circle cx="386.7" cy="166.6" r="11.6" transform="translate(-27.6 241.9) rotate(-33.6)" fill="#231f20"/><circle cx="413.2" cy="152.4" r="11.6" transform="translate(-24.5 201.2) rotate(-26.6)" fill="#231f20"/><circle cx="441.3" cy="141.5" r="11.6" transform="translate(-21.9 156.3) rotate(-19.6)" fill="#231f20"/><circle cx="470.5" cy="134.1" r="11.6" transform="translate(-17.9 105.9) rotate(-12.6)" fill="#231f20"/><circle cx="500.4" cy="130.4" r="11.6" transform="translate(-10.3 49.5) rotate(-5.6)" fill="#231f20"/><circle cx="530.5" cy="130.3" r="11.6" transform="matrix(.02 -1 1 .02 387.36 657.53)" fill="#231f20"/><circle cx="560.5" cy="133.9" r="11.6" transform="translate(346.2 668.8) rotate(-81.6)" fill="#231f20"/><circle cx="589.7" cy="141.1" r="11.6" transform="translate(297.1 672.2) rotate(-74.6)" fill="#231f20"/><circle cx="617.9" cy="151.8" r="11.6" transform="translate(242.1 665.2) rotate(-67.6)" fill="#231f20"/><circle cx="644.5" cy="165.9" r="11.6" transform="translate(183.6 646) rotate(-60.6)" fill="#231f20"/><circle cx="669.2" cy="183.1" r="11.6" transform="translate(124.8 613.2) rotate(-53.6)" fill="#231f20"/><circle cx="691.7" cy="203.2" r="11.6" transform="translate(68.8 566.2) rotate(-46.6)" fill="#231f20"/><circle cx="711.5" cy="225.9" r="11.6" transform="matrix(.77 -.64 .64 .77 19.32 505.43)" fill="#231f20"/><circle cx="728.4" cy="250.8" r="11.6" transform="translate(-20.4 432) rotate(-32.6)" fill="#231f20"/><circle cx="742.2" cy="277.6" r="11.6" transform="translate(-47.1 348) rotate(-25.6)" fill="#231f20"/><circle cx="752.6" cy="305.9" r="11.6" transform="translate(-58.3 256.1) rotate(-18.6)" fill="#231f20"/><circle cx="759.4" cy="335.2" r="11.6" transform="translate(-51.9 159.6) rotate(-11.6)" fill="#231f20"/><circle cx="762.6" cy="365.2" r="11.6" transform="translate(-26.9 62.4) rotate(-4.6)" fill="#231f20"/><path d="M378.5 93.4q4.7 9 2 17.5t-12.1 14.3q-10.3 6.4-20.5 3.1t-17.6-15.4l-2-3.3a37.7 37.7 0 0 1-5.7-15.3 23.9 23.9 0 0 1 2.2-13.8 25.6 25.6 0 0 1 9.8-10.4q9.3-5.7 18-4.3t15.1 9.9l-11 6.8q-3.6-4.9-7.5-5.7t-9 2.3q-5.5 3.4-5.8 9.1t4.8 14l2.5 4q5.4 8.7 10.5 11.1t10.8-1.1q5.1-3.2 6.2-7t-1.6-9zM432.9 63a38 38 0 0 1 2.5 16.4 24.8 24.8 0 0 1-5.1 13.4 27.8 27.8 0 0 1-26.3 9.6 25 25 0 0 1-12.6-6.8 36.9 36.9 0 0 1-8.7-13.9l-1.1-2.9a37.9 37.9 0 0 1-2.4-16.5 25 25 0 0 1 5.2-13.4 27.7 27.7 0 0 1 26.3-9.5 24.9 24.9 0 0 1 12.6 7 37.7 37.7 0 0 1 8.7 14.2zm-13.3 1.8q-3.4-9.3-8.5-12.9a12.5 12.5 0 0 0-19 6.8q-1.6 6 1.7 15.2l1.1 2.9q3.3 9.1 8.4 12.8a12.4 12.4 0 0 0 19.1-6.7q1.5-6-1.8-15.2zM469.3 64l-10.2 1.5 3.3 22.8-12.8 1.8-8.9-62.3 23.1-3.3q11-1.6 17.7 2.5t8 13a19.3 19.3 0 0 1-1.2 11 19 19 0 0 1-7.4 8l17.1 23.5v.6l-13.8 2zm-11.7-9l10.4-1.5q4.8-.7 7.1-3.5a8.9 8.9 0 0 0 1.7-7.2 9.5 9.5 0 0 0-3.5-6.6q-2.9-2.2-8-1.4l-10.3 1.5zM554.9 85.3l-13-.6-23.4-42.4-1.8 41.4-12.9-.6 2.7-62.9 12.9.6 23.5 42.5 1.8-41.4 12.9.6zM607.4 68.6l-24.3-5.4-3.7 16.5 28.5 6.3-2.3 10.2-41.2-9.1 13.6-61.4 41.1 9.1-2.2 10.2-28.4-6.3-3.2 14.6 24.3 5.4zM627.4 93.5l25.6 10.3-3.9 9.7-37.6-15.1 23.5-58.4 12 4.8zM670.8 114.2l23.5 14.3-5.4 8.9-34.6-21 32.7-53.8 11.1 6.7z" fill="#fff"/><path fill="#231f20" d="M6.2 377h1017.8v9.99h-1017.8z"/><path stroke="#231f20" stroke-linecap="square" stroke-miterlimit="10" stroke-width="10.11" fill="none" d="M333.4 266.8l40.6 52.5M387.5 294.3l-66.4-.8"/><path stroke="#231f20" stroke-linecap="round" stroke-miterlimit="10" stroke-width="10.11" fill="none" d="M302.9 361.4l46.5 19.3M363.6 359.1l-43.6 22.5"/><path stroke="#231f20" stroke-linecap="square" stroke-miterlimit="10" stroke-width="10.11" fill="none" d="M512.4 167.2l-27.8 60.3M513.1 228l-30-59.3M403.2 198.2l8.3 65.9M435.9 249.5l-56.8-34.5M448.6 245.4l-30.3-59.1M523.8 228l2.4-63.4M542.1 228.8l2.5-63.4M644.4 297.7l54.8-31.9M653.6 313.6l53.8-31.3M668.5 363.1l61.1.1M592.3 248.2l30.6-56.3M585.7 248.2l.6 133.3M448.1 247.5v134M645.1 304.7h-259.2"/><path d="M490.2 382a24.9 24.9 0 0 1 49.9 0" fill="#231f20"/></svg>